<svg width="86" height="85" viewBox="0 0 86 85" fill="none" xmlns="http://www.w3.org/2000/svg">
<circle cx="43" cy="42.5" r="42.5" fill="#6E7FD7"/>
<path d="M51.5254 35.9788C51.4174 35.9634 51.3095 35.9634 51.2016 35.9788C48.812 35.9017 46.9158 33.9438 46.9158 31.5388C46.9158 29.0875 48.9045 27.0834 51.3712 27.0834C53.8224 27.0834 55.8266 29.0721 55.8266 31.5388C55.8112 33.9438 53.9149 35.9017 51.5254 35.9788Z" fill="white"/>
<path d="M56.5513 46.6625C54.8246 47.8188 52.4042 48.2504 50.1688 47.9575C50.7546 46.6933 51.0629 45.2904 51.0783 43.8104C51.0783 42.2688 50.7392 40.8042 50.0917 39.5246C52.3733 39.2163 54.7938 39.6479 56.5358 40.8042C58.9717 42.4075 58.9717 45.0438 56.5513 46.6625Z" fill="white"/>
<path d="M34.4283 35.9788C34.5362 35.9634 34.6441 35.9634 34.752 35.9788C37.1416 35.9017 39.0379 33.9438 39.0379 31.5388C39.0379 29.0721 37.0491 27.0834 34.5825 27.0834C32.1312 27.0834 30.1425 29.0721 30.1425 31.5388C30.1425 33.9438 32.0387 35.9017 34.4283 35.9788Z" fill="white"/>
<path d="M34.598 43.8105C34.598 45.3059 34.9217 46.7242 35.5076 48.0038C33.3338 48.2351 31.0676 47.7726 29.4026 46.678C26.9667 45.0592 26.9667 42.423 29.4026 40.8042C31.0521 39.6942 33.3801 39.2471 35.5692 39.4938C34.9371 40.7888 34.598 42.2534 34.598 43.8105Z" fill="white"/>
<path d="M43.185 48.4662C43.0617 48.4508 42.9229 48.4508 42.7842 48.4662C39.9475 48.3737 37.6813 46.0458 37.6813 43.1783C37.6967 40.2492 40.0554 37.875 43 37.875C45.9292 37.875 48.3034 40.2492 48.3034 43.1783C48.2879 46.0458 46.0371 48.3737 43.185 48.4662Z" fill="white"/>
<path d="M38.1745 51.6574C35.8466 53.2145 35.8466 55.7737 38.1745 57.3154C40.8262 59.0883 45.1737 59.0883 47.8254 57.3154C50.1533 55.7583 50.1533 53.1991 47.8254 51.6574C45.1891 49.8845 40.8416 49.8845 38.1745 51.6574Z" fill="white"/>
</svg>
