<svg width="86" height="85" viewBox="0 0 86 85" fill="none" xmlns="http://www.w3.org/2000/svg">
<circle cx="43" cy="42.5" r="42.5" fill="#6E7FD7"/>
<path d="M36.525 57.3792C32.4396 57.3792 29.1096 54.3333 29.1096 50.565V46.5417C29.1096 45.5925 30.1271 44.955 31.0984 45.2667C31.4992 45.3942 31.9 45.4792 32.3163 45.5358C32.5013 45.5642 32.6863 45.5925 32.8713 45.5925C33.1025 45.6208 33.3492 45.635 33.5805 45.635C35.2917 45.635 36.9875 45.0542 38.3288 44.0483C39.6084 45.0542 41.258 45.635 43.0155 45.635C44.773 45.635 46.4071 45.0825 47.6867 44.0625C49.0125 45.0542 50.6775 45.635 52.3734 45.635C52.6355 45.635 52.913 45.6208 53.1596 45.5925C53.3446 45.5783 53.4988 45.5642 53.6684 45.5358C54.1309 45.4792 54.5471 45.3658 54.9634 45.2383C55.9192 44.9408 56.9213 45.5925 56.9213 46.5133V50.565C56.9213 54.3192 53.6067 57.3792 49.5059 57.3792H36.525Z" fill="white"/>
<path d="M58.3859 38.1692L57.9542 34.4008C57.3376 30.2925 55.3026 28.6208 50.9551 28.6208H47.4709H45.2817H40.7801H38.5755H35.0142C30.6667 28.6208 28.6471 30.2925 28.0151 34.4434L27.6142 38.1834C27.4601 39.6425 27.8917 41.0592 28.8321 42.1642C29.9576 43.51 31.6842 44.275 33.6113 44.275C35.4767 44.275 37.2651 43.4108 38.3905 42.0367C39.3926 43.4108 41.1192 44.275 43.0309 44.275C44.9426 44.275 46.623 43.4533 47.6405 42.0933C48.7813 43.4392 50.5388 44.275 52.3888 44.275C54.3621 44.275 56.1351 43.4675 57.2451 42.0508C58.1392 40.96 58.5401 39.5859 58.3859 38.1692ZM45.3126 36.9509H44.1563V38.0559C44.1563 38.6509 43.6321 39.1184 43.0001 39.1184C42.368 39.1184 41.8438 38.6509 41.8438 38.0559V36.9509H40.6876C40.0555 36.9509 39.5313 36.4834 39.5313 35.8884C39.5313 35.3075 40.0555 34.8259 40.6876 34.8259H41.8438V33.82C41.8438 33.2392 42.368 32.7575 43.0001 32.7575C43.6321 32.7575 44.1563 33.2392 44.1563 33.82V34.8259H45.3126C45.9446 34.8259 46.4688 35.3075 46.4688 35.8884C46.4688 36.4834 45.9446 36.9509 45.3126 36.9509Z" fill="white"/>
</svg>
