<svg width="38" height="38" viewBox="0 0 38 38" fill="none" xmlns="http://www.w3.org/2000/svg">
<path d="M19 1.58334L4.75 7.91668V17.4167C4.75 26.2042 10.83 34.4217 19 36.4167C27.17 34.4217 33.25 26.2042 33.25 17.4167V7.91668L19 1.58334ZM19 11.0833C21.2167 11.0833 23.4333 12.825 23.4333 15.0417V17.4167C24.3833 17.4167 25.3333 18.3667 25.3333 19.475V25.0167C25.3333 25.9667 24.3833 26.9167 23.275 26.9167H14.5667C13.6167 26.9167 12.6667 25.9667 12.6667 24.8583V19.3167C12.6667 18.3667 13.6167 17.4167 14.5667 17.4167V15.0417C14.5667 12.825 16.7833 11.0833 19 11.0833ZM19 12.9833C17.7333 12.9833 16.625 13.775 16.625 15.0417V17.4167H21.375V15.0417C21.375 13.775 20.2667 12.9833 19 12.9833Z" fill="black"/>
</svg>
