<svg width="86" height="85" viewBox="0 0 86 85" fill="none" xmlns="http://www.w3.org/2000/svg">
<circle cx="43" cy="42.5" r="42.5" fill="#6E7FD7"/>
<path d="M47.3783 40.8042L56.1042 34.9612C56.9829 34.3754 57.2142 33.1729 56.6283 32.3096L53.8225 28.1317C53.2367 27.2529 52.0342 27.0217 51.1708 27.6075L42.445 33.4504L47.3783 40.8042Z" fill="white"/>
<path d="M46.885 40.0642L44.1717 41.8834L40.0554 44.643L39.5158 44.9975L39.2692 44.6276L35.8158 39.4784L35.5692 39.1084L42.9383 34.175L46.885 40.0642Z" fill="white"/>
<path d="M33.195 48.6976L39.2846 44.6276L35.8313 39.4784L29.7417 43.5484C29.0325 44.0263 28.8475 44.9821 29.3254 45.6913L31.0675 48.2813C31.53 48.9905 32.4858 49.1755 33.195 48.6976Z" fill="white"/>
<path d="M50.03 57.6237C49.8759 57.6854 49.7063 57.7316 49.5521 57.7316C49.105 57.7316 48.6888 57.4696 48.4884 57.0379L42.7379 44.3345L36.9104 57.0533C36.71 57.4696 36.2938 57.7316 35.8467 57.7316C35.6925 57.7316 35.5229 57.6854 35.3688 57.6237C34.7984 57.3462 34.5363 56.6679 34.7984 56.082L40.0554 44.6429L44.1717 41.8833L50.6004 56.0975C50.8625 56.6679 50.6004 57.3616 50.03 57.6237Z" fill="white"/>
</svg>
