<svg width="27" height="24" viewBox="0 0 27 24" fill="none" xmlns="http://www.w3.org/2000/svg">
<rect width="27" height="24" fill="#F5F5F5"/>
<path d="M-20412 -1277C-20412 -1278.1 -20411.1 -1279 -20410 -1279H4366C4367.11 -1279 4368 -1278.1 4368 -1277V6290C4368 6291.1 4367.11 6292 4366 6292H-20410C-20411.1 6292 -20412 6291.1 -20412 6290V-1277Z" fill="#FCF2D9" fill-opacity="0.13"/>
<path d="M-20410 -1278H4366V-1280H-20410V-1278ZM4367 -1277V6290H4369V-1277H4367ZM4366 6291H-20410V6293H4366V6291ZM-20411 6290V-1277H-20413V6290H-20411ZM-20410 6291C-20410.6 6291 -20411 6290.55 -20411 6290H-20413C-20413 6291.66 -20411.7 6293 -20410 6293V6291ZM4367 6290C4367 6290.55 4366.55 6291 4366 6291V6293C4367.66 6293 4369 6291.66 4369 6290H4367ZM4366 -1278C4366.55 -1278 4367 -1277.55 4367 -1277H4369C4369 -1278.66 4367.66 -1280 4366 -1280V-1278ZM-20410 -1280C-20411.7 -1280 -20413 -1278.66 -20413 -1277H-20411C-20411 -1277.55 -20410.6 -1278 -20410 -1278V-1280Z" fill="black" fill-opacity="0.1"/>
<path d="M13.5 0L16.5309 8.98278H26.3393L18.4042 14.5344L21.4351 23.5172L13.5 17.9656L5.5649 23.5172L8.59584 14.5344L0.660737 8.98278H10.4691L13.5 0Z" fill="#FA9907"/>
</svg>
