<svg width="180" height="36" viewBox="0 0 180 36" fill="none" xmlns="http://www.w3.org/2000/svg">
<path d="M18 0L22.0413 12.4377H35.119L24.5389 20.1246L28.5801 32.5623L18 24.8754L7.41987 32.5623L11.4611 20.1246L0.880983 12.4377H13.9587L18 0Z" fill="#FA9907"/>
<path d="M54 0L58.0413 12.4377H71.119L60.5389 20.1246L64.5801 32.5623L54 24.8754L43.4199 32.5623L47.4611 20.1246L36.881 12.4377H49.9587L54 0Z" fill="#FA9907"/>
<path d="M90 0L94.0413 12.4377H107.119L96.5389 20.1246L100.58 32.5623L90 24.8754L79.4199 32.5623L83.4611 20.1246L72.881 12.4377H85.9587L90 0Z" fill="#FA9907"/>
<path d="M126 0L130.041 12.4377H143.119L132.539 20.1246L136.58 32.5623L126 24.8754L115.42 32.5623L119.461 20.1246L108.881 12.4377H121.959L126 0Z" fill="#FA9907"/>
<path d="M162 0L166.041 12.4377H179.119L168.539 20.1246L172.58 32.5623L162 24.8754L151.42 32.5623L155.461 20.1246L144.881 12.4377H157.959L162 0Z" fill="#D9D9D9"/>
</svg>
