<svg width="27" height="24" viewBox="0 0 27 24" fill="none" xmlns="http://www.w3.org/2000/svg">
<rect width="27" height="24" fill="#F5F5F5"/>
<path d="M-20472 -1327C-20472 -1328.1 -20471.1 -1329 -20470 -1329H4306C4307.11 -1329 4308 -1328.1 4308 -1327V6240C4308 6241.1 4307.11 6242 4306 6242H-20470C-20471.1 6242 -20472 6241.1 -20472 6240V-1327Z" fill="#FCF2D9" fill-opacity="0.13"/>
<path d="M-20470 -1328H4306V-1330H-20470V-1328ZM4307 -1327V6240H4309V-1327H4307ZM4306 6241H-20470V6243H4306V6241ZM-20471 6240V-1327H-20473V6240H-20471ZM-20470 6241C-20470.6 6241 -20471 6240.55 -20471 6240H-20473C-20473 6241.66 -20471.7 6243 -20470 6243V6241ZM4307 6240C4307 6240.55 4306.55 6241 4306 6241V6243C4307.66 6243 4309 6241.66 4309 6240H4307ZM4306 -1328C4306.55 -1328 4307 -1327.55 4307 -1327H4309C4309 -1328.66 4307.66 -1330 4306 -1330V-1328ZM-20470 -1330C-20471.7 -1330 -20473 -1328.66 -20473 -1327H-20471C-20471 -1327.55 -20470.6 -1328 -20470 -1328V-1330Z" fill="black" fill-opacity="0.1"/>
<path d="M13.5 0L16.5309 8.98278H26.3393L18.4042 14.5344L21.4351 23.5172L13.5 17.9656L5.5649 23.5172L8.59584 14.5344L0.660737 8.98278H10.4691L13.5 0Z" fill="#D9D9D9"/>
</svg>
