<svg width="86" height="85" viewBox="0 0 86 85" fill="none" xmlns="http://www.w3.org/2000/svg">
<circle cx="43" cy="42.5" r="42.5" fill="#6E7FD7"/>
<path d="M53.7916 37.875C53.7916 31.9088 48.9662 27.0834 43 27.0834C37.0337 27.0834 32.2083 31.9088 32.2083 37.875C32.2083 43.4559 36.4325 48.0346 41.8437 48.605V52.1355H38.375C37.7429 52.1355 37.2187 52.6596 37.2187 53.2917C37.2187 53.9238 37.7429 54.448 38.375 54.448H41.8437V57.9167C41.8437 58.5488 42.3679 59.073 43 59.073C43.6321 59.073 44.1562 58.5488 44.1562 57.9167V54.448H47.625C48.2571 54.448 48.7812 53.9238 48.7812 53.2917C48.7812 52.6596 48.2571 52.1355 47.625 52.1355H44.1562V48.605C49.5675 48.0346 53.7916 43.4559 53.7916 37.875Z" fill="white"/>
</svg>
