<svg width="85" height="85" viewBox="0 0 85 85" fill="none" xmlns="http://www.w3.org/2000/svg">
<circle cx="42.5" cy="42.5" r="42.5" fill="#6E7FD7"/>
<path d="M42.5 27.0834C34.0054 27.0834 27.0833 34.0055 27.0833 42.5C27.0833 50.9946 34.0054 57.9167 42.5 57.9167C50.9946 57.9167 57.9167 50.9946 57.9167 42.5C57.9167 34.0055 50.9946 27.0834 42.5 27.0834ZM49.2063 48.0038C48.9904 48.3738 48.605 48.5742 48.2042 48.5742C48.0038 48.5742 47.8033 48.528 47.6183 48.4046L42.8392 45.5525C41.6521 44.8434 40.7733 43.2863 40.7733 41.9142V35.5934C40.7733 34.9613 41.2975 34.4371 41.9296 34.4371C42.5617 34.4371 43.0858 34.9613 43.0858 35.5934V41.9142C43.0858 42.4692 43.5483 43.2863 44.0263 43.5638L48.8054 46.4159C49.3604 46.7396 49.5454 47.4488 49.2063 48.0038Z" fill="white"/>
</svg>
